<?xml version="1.0" encoding="UTF-8" standalone="no"?>
<!-- Created with Inkscape (http://www.inkscape.org/) -->

<svg
   width="17.4625mm"
   height="17.4625mm"
   viewBox="0 0 17.4625 17.4625"
   version="1.1"
   id="svg1"
   inkscape:version="1.3 (0e150ed6c4, 2023-07-21)"
   sodipodi:docname="facebook.svg"
   xmlns:inkscape="http://www.inkscape.org/namespaces/inkscape"
   xmlns:sodipodi="http://sodipodi.sourceforge.net/DTD/sodipodi-0.dtd"
   xmlns="http://www.w3.org/2000/svg"
   xmlns:svg="http://www.w3.org/2000/svg">
  <sodipodi:namedview
     id="namedview1"
     pagecolor="#ffffff"
     bordercolor="#000000"
     borderopacity="0.25"
     inkscape:showpageshadow="2"
     inkscape:pageopacity="0.0"
     inkscape:pagecheckerboard="0"
     inkscape:deskcolor="#d1d1d1"
     inkscape:document-units="mm"
     inkscape:zoom="5.8511223"
     inkscape:cx="219.61599"
     inkscape:cy="488.70966"
     inkscape:window-width="1920"
     inkscape:window-height="1017"
     inkscape:window-x="-8"
     inkscape:window-y="-8"
     inkscape:window-maximized="1"
     inkscape:current-layer="layer1" />
  <defs
     id="defs1" />
  <g
     inkscape:label="Слой 1"
     inkscape:groupmode="layer"
     id="layer1"
     transform="translate(-59.953802,-147.17804)">
    <circle
       style="fill:#444a34;fill-opacity:1;stroke-width:0.264583"
       id="circle2"
       cx="68.685051"
       cy="155.90929"
       r="8.7312498"
       inkscape:export-filename="google.svg"
       inkscape:export-xdpi="2.8199999"
       inkscape:export-ydpi="2.8199999" />
    <path
       d="m 70.169259,155.99782 c 4.97e-4,0.0215 4.97e-4,0.0475 4.97e-4,0.073 0,0.67859 -0.16802,1.31767 -0.464564,1.87874 l 0.0105,-0.022 c -0.300036,0.56057 -0.740596,1.01163 -1.275167,1.31617 l -0.01602,0.008 c -0.533073,0.30005 -1.170157,0.47657 -1.848246,0.47657 -0.02601,0 -0.05201,-5.1e-4 -0.07751,-10e-4 h 0.004 c -0.003,0 -0.007,0 -0.011,0 -0.532571,0 -1.039138,-0.11101 -1.497699,-0.31154 l 0.02401,0.01 c -0.924123,-0.38756 -1.644219,-1.10765 -2.02227,-2.00677 l -0.009,-0.0245 c -0.191026,-0.43806 -0.302041,-0.94812 -0.302041,-1.4847 0,-0.53657 0.111015,-1.04663 0.311542,-1.5092 l -0.0095,0.0245 c 0.387551,-0.92412 1.107647,-1.64421 2.006767,-2.02227 l 0.0245,-0.009 c 0.435058,-0.19153 0.942127,-0.30304 1.475697,-0.30304 h 0.009 -4.99e-4 c 0.01851,-5e-4 0.04051,-5e-4 0.06251,-5e-4 0.96863,0 1.847749,0.38105 2.496335,1.00213 l -0.0012,-0.001 -1.036637,0.99514 c -0.37755,-0.36505 -0.892622,-0.58958 -1.460197,-0.58958 -0.021,0 -0.04201,5.1e-4 -0.06301,0.001 h 0.003 c -0.0045,0 -0.01,0 -0.0155,0 -0.432057,0 -0.835611,0.12001 -1.180157,0.32854 l 0.01,-0.006 c -0.714595,0.43256 -1.185158,1.20566 -1.185158,2.08878 0,0.88311 0.470563,1.65622 1.174156,2.08277 l 0.011,0.006 c 0.334045,0.20302 0.738099,0.32304 1.169657,0.32304 h 0.0165 -9.82e-4 0.02601 c 0.274536,0 0.538571,-0.044 0.786102,-0.12501 l -0.01798,0.005 c 0.227531,-0.0715 0.426062,-0.17353 0.60208,-0.30354 l -0.0055,0.004 c 0.15502,-0.11901 0.289541,-0.25353 0.405059,-0.40355 l 0.0043,-0.005 c 0.09901,-0.12501 0.184525,-0.26753 0.250033,-0.42055 l 0.0043,-0.012 c 0.04652,-0.11001 0.08501,-0.23904 0.110013,-0.37305 l 0.0018,-0.012 h -2.167289 v -1.31268 h 3.60448 c 0.03897,0.19103 0.06201,0.41056 0.06301,0.63509 v 0.001 z m 4.516101,-0.63658 v 1.09465 h -1.088648 v 1.08864 h -1.094645 v -1.08864 h -1.087144 v -1.09465 h 1.088648 v -1.08864 h 1.094645 v 1.08864 z"
       id="path1-69"
       style="fill:#6a724f;fill-opacity:1;stroke-width:0.500066" />
  </g>
</svg>
