<?xml version="1.0" encoding="UTF-8" standalone="no"?>
<!-- Created with Inkscape (http://www.inkscape.org/) -->

<svg
   width="17.462498mm"
   height="17.462492mm"
   viewBox="0 0 17.462498 17.462492"
   version="1.1"
   id="svg1"
   inkscape:version="1.3 (0e150ed6c4, 2023-07-21)"
   sodipodi:docname="facebook.svg"
   xmlns:inkscape="http://www.inkscape.org/namespaces/inkscape"
   xmlns:sodipodi="http://sodipodi.sourceforge.net/DTD/sodipodi-0.dtd"
   xmlns="http://www.w3.org/2000/svg"
   xmlns:svg="http://www.w3.org/2000/svg">
  <sodipodi:namedview
     id="namedview1"
     pagecolor="#ffffff"
     bordercolor="#000000"
     borderopacity="0.25"
     inkscape:showpageshadow="2"
     inkscape:pageopacity="0.0"
     inkscape:pagecheckerboard="0"
     inkscape:deskcolor="#d1d1d1"
     inkscape:document-units="mm"
     inkscape:zoom="5.8511223"
     inkscape:cx="219.61599"
     inkscape:cy="488.70966"
     inkscape:window-width="1920"
     inkscape:window-height="1017"
     inkscape:window-x="-8"
     inkscape:window-y="-8"
     inkscape:window-maximized="1"
     inkscape:current-layer="layer1" />
  <defs
     id="defs1" />
  <g
     inkscape:label="Слой 1"
     inkscape:groupmode="layer"
     id="layer1"
     transform="translate(-24.010979,-119.93549)">
    <circle
       style="fill:#444a34;fill-opacity:1;stroke-width:0.264583"
       id="circle1"
       cx="32.742229"
       cy="128.66673"
       r="8.7312498"
       inkscape:export-filename="twitter.svg"
       inkscape:export-xdpi="2.8199999"
       inkscape:export-ydpi="2.8199999" />
    <g
       id="7935ec95c421cee6d86eb22ecd12f847"
       transform="matrix(0.0180733,0,0,0.0180733,28.115465,124.03997)"
       style="fill:#6a7350;fill-opacity:1">&#10;&#10;<path
   style="display:inline;fill:#6a7350;fill-opacity:1"
   d="m 459.186,151.787 c 0.203,4.501 0.305,9.023 0.305,13.565 0,138.542 -105.461,298.285 -298.274,298.285 -59.209,0 -114.322,-17.357 -160.716,-47.104 8.212,0.973 16.546,1.47 25.012,1.47 49.121,0 94.318,-16.759 130.209,-44.884 -45.887,-0.841 -84.596,-31.154 -97.938,-72.804 6.408,1.227 12.968,1.886 19.73,1.886 9.55,0 18.816,-1.287 27.617,-3.68 -47.955,-9.633 -84.1,-52.001 -84.1,-102.795 0,-0.446 0,-0.882 0.011,-1.318 14.133,7.847 30.294,12.562 47.488,13.109 -28.134,-18.796 -46.637,-50.885 -46.637,-87.262 0,-19.212 5.16,-37.218 14.193,-52.7 51.707,63.426 128.941,105.156 216.072,109.536 -1.784,-7.675 -2.718,-15.674 -2.718,-23.896 0,-57.891 46.941,-104.832 104.832,-104.832 30.173,0 57.404,12.734 76.525,33.102 23.887,-4.694 46.313,-13.423 66.569,-25.438 -7.827,24.485 -24.434,45.025 -46.089,58.002 21.209,-2.535 41.426,-8.171 60.222,-16.505 -14.051,21.018 -31.833,39.48 -52.313,54.263 z"
   id="path1-6">&#10;&#10;</path>
&#10;&#10;</g>
  </g>
</svg>
